<svg xmlns="http://www.w3.org/2000/svg" viewBox="0 0 1600 900" preserveAspectRatio="xMidYMid slice">
  <defs>
    <linearGradient id="sky" x1="0" x2="1" y1="0" y2="1">
      <stop offset="0%" stop-color="#132739"/>
      <stop offset="55%" stop-color="#7a8f54"/>
      <stop offset="100%" stop-color="#d5b46c"/>
    </linearGradient>
  </defs>
  <rect width="1600" height="900" fill="url(#sky)"/>
  <path d="M0 610C179 520 388 494 622 539s470 56 978 3V900H0Z" fill="#5e6b36"/>
  <path d="M645 900 772 475h86L973 900Z" fill="#2a3037"/>
  <path d="M772 900 811 475h16L860 900Z" fill="#f2d184"/>
  <path d="M802 530h30l-3 38h-24z" fill="#f2d184"/>
  <path d="M915 420c0 39-31 70-70 70s-70-31-70-70 31-70 70-70 70 31 70 70z" fill="#ffd998" opacity=".84"/>
</svg>
